<?xml version="1.0" encoding="utf-8"?>
<!-- Generator: Adobe Illustrator 22.0.1, SVG Export Plug-In . SVG Version: 6.00 Build 0)  -->
<svg width="20px" height="20px" version="1.1" id="图层_1" xmlns="http://www.w3.org/2000/svg" xmlns:xlink="http://www.w3.org/1999/xlink" x="0px" y="0px"
	 viewBox="0 0 20 20" style="enable-background:new 0 0 20 20;" xml:space="preserve">
<style type="text/css">
	.st0{fill:#FFFFFF;}
</style>
<g>
	<path class="st0" d="M20,2.7c0-0.8-0.7-1.5-2-2C16.9,0.2,15.4,0,13.8,0c-1.6,0-3.1,0.2-4.2,0.7c-1.3,0.5-2,1.2-2,2v3.8
		c-0.5,0-1-0.1-1.5-0.1C4.6,6.4,3.1,6.7,2,7.1c-1.3,0.5-2,1.2-2,2v8.2c0,0.8,0.7,1.5,2,2C3.1,19.8,4.6,20,6.2,20
		c1.6,0,3.1-0.2,4.2-0.7c1.1-0.4,1.8-1,1.9-1.7c0.5,0.1,1,0.1,1.6,0.1c1.6,0,3.1-0.2,4.2-0.7c1.3-0.5,2-1.2,2-2V15L20,2.7z M19,12
		c0,0.7-2,1.7-5.2,1.7c-0.5,0-1,0-1.5-0.1v-2.1c0.5,0.1,1,0.1,1.5,0.1c1.6,0,3.1-0.2,4.2-0.7c0.4-0.1,0.7-0.3,1-0.5
		C19,10.4,19,12,19,12z M11.3,12c0,0.7-2,1.7-5.2,1.7C3,13.6,1,12.6,1,12v-1.4c0.3,0.2,0.6,0.4,1,0.5c1.1,0.4,2.6,0.7,4.2,0.7
		c1.6,0,3.1-0.2,4.2-0.7c0.4-0.1,0.7-0.3,1-0.5V12L11.3,12z M1,13.5c0.3,0.2,0.6,0.4,1,0.5c1.1,0.4,2.6,0.7,4.2,0.7
		c1.6,0,3.1-0.2,4.2-0.7c0.4-0.1,0.7-0.3,1-0.5v1.2c0,0.7-2,1.7-5.2,1.7c-3.2,0-5.2-1-5.2-1.7C1,14.7,1,13.5,1,13.5z M19,8.9
		c0,0.7-2,1.7-5.2,1.7c-0.5,0-1,0-1.5-0.1V9.1c0-0.2-0.1-0.4-0.2-0.6c0.5,0.1,1.1,0.1,1.7,0.1c1.6,0,3.1-0.2,4.2-0.7
		c0.4-0.1,0.7-0.3,1-0.5V8.9z M19,5.9c0,0.7-2,1.7-5.2,1.7c-3.2,0-5.2-1-5.2-1.7V4.2c0.3,0.2,0.6,0.3,1,0.5c1.1,0.4,2.6,0.7,4.2,0.7
		s3.1-0.2,4.2-0.7c0.4-0.1,0.7-0.3,1-0.5C19,4.2,19,5.9,19,5.9z M13.8,1C17,1,19,2,19,2.7s-2,1.7-5.2,1.7c-3.2,0-5.2-1-5.2-1.7
		S10.7,1,13.8,1z M6.2,7.4c0.7,0,1.3,0,1.9,0.1c0,0,0,0,0.1,0c2,0.3,3.2,1,3.2,1.5c0,0.7-2,1.7-5.2,1.7C3,10.8,1,9.8,1,9.1
		S3,7.4,6.2,7.4L6.2,7.4z M6.2,19C3,19,1,18,1,17.3v-1.2c0.3,0.2,0.6,0.4,1,0.5c1.1,0.4,2.6,0.7,4.2,0.7c1.6,0,3.1-0.2,4.2-0.7
		c0.4-0.1,0.7-0.3,1-0.5v1.2C11.3,18,9.3,19,6.2,19z M13.8,16.7c-0.5,0-1,0-1.5-0.1v-2.1c0.5,0.1,1,0.1,1.5,0.1
		c1.6,0,3.1-0.2,4.2-0.7c0.4-0.1,0.7-0.3,1-0.5v1.6C19,15.7,17,16.7,13.8,16.7z"/>
</g>
</svg>
