<svg xmlns="http://www.w3.org/2000/svg" width="20" height="20" viewBox="0 0 20 20">
    <g fill="none" fill-rule="evenodd">
        <path d="M0 0h20v20H0z"/>
        <path fill="#FFF" fill-rule="nonzero" d="M8.595 2.426h2.89c-.04-.618-.558-1.41-1.445-1.41-.895 0-1.445.802-1.445 1.41zm-2.144 1.13c-.367 0-.65-.177-.65-.552 0-.376.283-.582.65-.582h1.14C7.649 1.042 8.707 0 10 0c1.318 0 2.392 1.083 2.413 2.422h1.136c.368 0 .684.206.684.582 0 .375-.316.552-.684.552H6.451zm-.944 4.472c-.369 0-.63-.197-.63-.573 0-.374.261-.572.63-.572h8.989c.367 0 .703.198.703.572 0 .376-.336.573-.703.573h-8.99zm0 4.02c-.369 0-.66-.155-.66-.53 0-.376.291-.53.66-.53h8.989c.367 0 .674.154.674.53 0 .375-.307.53-.674.53h-8.99zm0 4.031c-.369 0-.665-.187-.665-.562 0-.376.296-.562.665-.562h8.989c.367 0 .668.186.668.562 0 .375-.301.562-.668.562h-8.99zm-3.394 3.918A1.125 1.125 0 0 1 1 18.862V3.531c0-.628.499-1.137 1.113-1.137h2.31c.368 0 .684.191.684.566 0 .375-.316.571-.684.571h-2.31v15.331H17.89l-.002-15.331H15.61c-.367 0-.67-.196-.67-.571 0-.376.305-.566.672-.566h2.274c.613 0 1.112.51 1.113 1.137v15.331c0 .626-.498 1.135-1.111 1.135H2.113z"/>
    </g>
</svg>
