<?xml version="1.0" encoding="UTF-8"?>
<svg width="24px" height="24px" viewBox="0 0 24 24" version="1.1" xmlns="http://www.w3.org/2000/svg" xmlns:xlink="http://www.w3.org/1999/xlink">
    <!-- Generator: Sketch 49.3 (51167) - http://www.bohemiancoding.com/sketch -->
    <title>icon_twitter</title>
    <desc>Created with Sketch.</desc>
    <defs></defs>
    <g id="Symbols" stroke="none" stroke-width="1" fill="none" fill-rule="evenodd">
        <g id="footer" transform="translate(-909.000000, -85.000000)">
            <g id="Group-24">
                <g>
                    <g id="Group-2" transform="translate(909.000000, 85.000000)">
                        <g id="Group-21">
                            <rect id="Rectangle-13" x="0" y="0" width="24" height="24"></rect>
                            <g id="推特_twitter44" transform="translate(3.000000, 4.000000)" fill="#FFFFFF" fill-rule="nonzero" opacity="0.5">
                                <path d="M16.1593992,4.40886166 C16.1593992,4.24038737 16.1563636,4.07343085 16.1487747,3.9079921 C16.8697233,3.37069565 17.4950514,2.69831622 17.9898498,1.92879841 C17.3280949,2.22628458 16.6177707,2.42511463 15.8710197,2.50859289 C16.6329486,2.03959686 17.2172964,1.28981028 17.4935336,0.389762837 C16.7801739,0.822332022 15.9909249,1.13196046 15.1515889,1.29284583 C14.4792095,0.527881402 13.5199684,0.040671913 12.4590356,0.0224584891 C10.422166,-0.0109328152 8.77081422,1.71023713 8.77081422,3.86701184 C8.77081422,4.17360473 8.80268775,4.47109089 8.86643478,4.75795255 C5.79898813,4.5606403 3.0806324,2.96392885 1.26232412,0.556719359 C0.945106728,1.13347826 0.762972326,1.8073755 0.762972326,2.52984189 C0.762972326,3.89584979 1.41410276,5.11007905 2.40369959,5.82647429 C1.79810276,5.79915414 1.23045059,5.61550197 0.732616598,5.31498023 C0.732616598,5.33167588 0.732616598,5.34837153 0.732616598,5.36506718 C0.732616598,7.27444268 2.00452174,8.87418972 3.69230038,9.24756522 C3.38267191,9.33559683 3.05634783,9.38113043 2.72091698,9.37961266 C2.4826245,9.37809489 2.25192095,9.35229251 2.02728851,9.30372333 C2.49628454,10.8685613 3.8592569,12.0114546 5.47266401,12.0493992 C4.2098656,13.0966719 2.61922526,13.722 0.891984163,13.7174467 C0.594498,13.7174467 0.300047413,13.6977154 0.0116679457,13.6612885 C1.64480628,14.781415 3.58301974,15.4340632 5.66694068,15.4340632 C12.4499288,15.435581 16.1593992,9.5313913 16.1593992,4.40886166 Z" id="Shape"></path>
                            </g>
                        </g>
                    </g>
                </g>
            </g>
        </g>
    </g>
</svg>