<?xml version="1.0" encoding="UTF-8"?>
<svg width="24px" height="24px" viewBox="0 0 24 24" version="1.1" xmlns="http://www.w3.org/2000/svg" xmlns:xlink="http://www.w3.org/1999/xlink">
    <!-- Generator: Sketch 49.3 (51167) - http://www.bohemiancoding.com/sketch -->
    <title>icon_line</title>
    <desc>Created with Sketch.</desc>
    <defs></defs>
    <g id="Symbols" stroke="none" stroke-width="1" fill="none" fill-rule="evenodd">
        <g id="footer" transform="translate(-945.000000, -85.000000)">
            <g id="Group-24">
                <g>
                    <g id="Group-3" transform="translate(945.000000, 85.000000)">
                        <g id="Group-22">
                            <rect id="Rectangle-13" x="0" y="0" width="24" height="24"></rect>
                            <g id="Line" transform="translate(3.000000, 3.000000)" fill="#FFFFFF" fill-rule="nonzero" opacity="0.5">
                                <path d="M17.9966261,7.34241548 C17.9966261,3.28991441 13.9708391,0.00470764528 9.00470712,0.00470764528 C4.03855195,0.00470764528 0.0126722717,3.28991441 0.0126722717,7.34241548 C0.0126722717,11.0572023 3.39634814,14.1251515 7.78535862,14.6111023 C7.78535862,14.6111023 7.84573755,14.6173811 7.86084387,14.6189566 C8.04571089,14.6424039 8.49864552,14.7601266 8.39086243,15.353258 C8.25617989,16.093815 7.98690747,16.5201746 7.98690747,16.5201746 C7.98690747,16.5201746 7.75785679,16.8780924 8.0424672,17.1769286 C8.31929275,17.4675862 8.83967294,17.1934251 8.83967294,17.1934251 C8.83967294,17.1934251 13.1257195,15.0839856 16.1364408,11.8112438 L16.1347726,11.8110353 C17.301388,10.5734295 17.9966261,9.02452236 17.9966261,7.34241548 Z M5.40161898,9.58459134 L3.62396235,9.58459134 C3.3711864,9.58459134 3.16609268,9.37959029 3.16609268,9.12672168 L3.16609266,5.56084327 C3.16609266,5.30797465 3.37118638,5.10290409 3.62396232,5.10290409 C3.87685411,5.10290409 4.08183199,5.30797465 4.08183199,5.56084327 L4.08183199,8.66885203 L5.40161896,8.66885203 C5.65448758,8.66885203 5.85946546,8.87382992 5.85946546,9.1267217 C5.85946546,9.37961346 5.65448758,9.58459134 5.40161898,9.58459134 Z M7.21952049,9.12674486 C7.21952049,9.37961348 7.01451944,9.58461453 6.76165082,9.58461453 C6.50885171,9.58461453 6.30378115,9.37961348 6.30378115,9.12674486 L6.30378115,5.56084327 C6.30378115,5.30797465 6.50885171,5.10290409 6.76165082,5.10290409 C7.01451944,5.10290409 7.21952049,5.30797465 7.21952049,5.56084327 L7.21952049,9.12674486 Z M11.5019063,9.12674486 C11.5019063,9.37961348 11.2968358,9.58461453 11.0440367,9.58461453 C10.8463339,9.58461453 10.7268504,9.47817523 10.657644,9.37266272 L8.84898695,6.90746015 L8.84898695,9.12676802 C8.84898695,9.37963664 8.64400906,9.58463769 8.39114045,9.58463769 C8.13824866,9.58463769 7.93327078,9.37963664 7.93327078,9.12676802 L7.93327078,5.56084327 C7.93327078,5.30797465 8.13824866,5.10290409 8.39114045,5.10290409 C8.62535785,5.10290409 8.75072638,5.27980091 8.75072638,5.27980091 L10.5861902,7.82315316 L10.5861902,5.56084327 C10.5861902,5.30797465 10.7911912,5.10290409 11.0440598,5.10290409 C11.2968589,5.10290409 11.5019295,5.30797465 11.5019295,5.56084327 L11.5019295,9.12674486 L11.5019063,9.12674486 Z M14.3836447,6.90743699 C14.6365133,6.90743699 14.8415144,7.11243804 14.8415144,7.36530666 C14.8415144,7.61819844 14.6365133,7.82317632 14.3836447,7.82317632 L13.0505123,7.82317632 L13.0505123,8.66889835 L14.3836447,8.66889835 C14.6365133,8.66889835 14.8415144,8.87387624 14.8415144,9.12676802 C14.8415144,9.37963664 14.6365133,9.58463769 14.3836447,9.58463769 L12.5926426,9.58463769 C12.339774,9.58463769 12.134773,9.37963664 12.134773,9.12676802 L12.134773,5.56084327 C12.134773,5.30797465 12.339774,5.10290409 12.5926426,5.10290409 L14.3836447,5.10290409 C14.6365133,5.10290409 14.8415144,5.30797465 14.8415144,5.56084327 C14.8415144,5.81364238 14.6365133,6.01871294 14.3836447,6.01871294 L13.0505123,6.01871294 L13.0505123,6.90741383 C13.0505123,6.90743699 14.3790109,6.90743699 14.3836447,6.90743699 Z" id="Shape"></path>
                            </g>
                        </g>
                    </g>
                </g>
            </g>
        </g>
    </g>
</svg>