<?xml version="1.0" encoding="UTF-8"?>
<svg width="20px" height="20px" viewBox="0 0 20 20" version="1.1" xmlns="http://www.w3.org/2000/svg" xmlns:xlink="http://www.w3.org/1999/xlink">
    <!-- Generator: Sketch 49.3 (51167) - http://www.bohemiancoding.com/sketch -->
    <title>icon_finance_gray</title>
    <desc>Created with Sketch.</desc>
    <defs></defs>
    <g id="资金管理" stroke="none" stroke-width="1" fill="none" fill-rule="evenodd">
        <g transform="translate(-172.000000, -115.000000)" fill="#7F8FA4" fill-rule="nonzero" id="Group-6">
            <g transform="translate(172.000000, 115.000000)">
                <path d="M20,2.66666667 C20,1.86440678 19.3,1.15254237 18.0222222,0.666666667 C16.9,0.237288136 15.4111111,0 13.8444444,0 C12.2777778,0 10.7888889,0.237288136 9.66666667,0.666666667 C8.37777778,1.15254237 7.67777778,1.86440678 7.67777778,2.66666667 L7.67777778,6.49717514 C7.18888889,6.4519774 6.67777778,6.4180791 6.15555556,6.4180791 C4.58888889,6.4180791 3.1,6.65536723 1.97777778,7.08474576 C0.7,7.5819209 0,8.29378531 0,9.0960452 L0,17.3333333 C0,18.1355932 0.7,18.8474576 1.97777778,19.3333333 C3.1,19.7627119 4.58888889,20 6.15555556,20 C7.72222222,20 9.21111111,19.7627119 10.3333333,19.3333333 C11.4444444,18.9039548 12.1222222,18.3163842 12.2777778,17.6384181 C12.7888889,17.6949153 13.3111111,17.7175141 13.8333333,17.7175141 C15.4,17.7175141 16.8888889,17.480226 18.0111111,17.0508475 C19.2888889,16.5649718 19.9888889,15.8531073 19.9888889,15.0508475 L19.9888889,15.0169492 L19.9888889,14.9830508 L20,2.66666667 Z M19.0111111,11.9887006 C19.0111111,12.6779661 16.9888889,13.6610169 13.8333333,13.6610169 C13.3111111,13.6610169 12.8,13.6384181 12.3111111,13.5819209 L12.3111111,11.5254237 C12.8111111,11.5819209 13.3111111,11.6045198 13.8333333,11.6045198 C15.4,11.6045198 16.8888889,11.3672316 18.0111111,10.9378531 C18.4,10.7909605 18.7333333,10.6214689 19.0111111,10.440678 L19.0111111,11.9887006 Z M11.3333333,11.9661017 C11.3333333,12.6553672 9.31111111,13.6384181 6.15555556,13.6384181 C3,13.6384181 0.977777778,12.6440678 0.977777778,11.9661017 L0.977777778,10.5988701 C1.25555556,10.779661 1.58888889,10.9491525 1.97777778,11.0960452 C3.1,11.5254237 4.58888889,11.7627119 6.15555556,11.7627119 C7.72222222,11.7627119 9.21111111,11.5254237 10.3333333,11.0960452 C10.7222222,10.9491525 11.0555556,10.779661 11.3333333,10.5988701 L11.3333333,11.9661017 Z M0.977777778,13.4689266 C1.25555556,13.6497175 1.58888889,13.819209 1.97777778,13.9661017 C3.1,14.3954802 4.58888889,14.6327684 6.15555556,14.6327684 C7.72222222,14.6327684 9.21111111,14.3954802 10.3333333,13.9661017 C10.7222222,13.819209 11.0555556,13.6497175 11.3333333,13.4689266 L11.3333333,14.6553672 C11.3333333,15.3446328 9.31111111,16.3276836 6.15555556,16.3276836 C3,16.3276836 0.977777778,15.3333333 0.977777778,14.6553672 L0.977777778,13.4689266 Z M19.0111111,8.93785311 C19.0111111,9.62711864 16.9888889,10.6101695 13.8333333,10.6101695 C13.3111111,10.6101695 12.8,10.5875706 12.3111111,10.5310734 L12.3111111,9.0960452 C12.3111111,8.88135593 12.2555556,8.66666667 12.1555556,8.46327684 C12.7,8.51977401 13.2555556,8.55367232 13.8333333,8.55367232 C15.4,8.55367232 16.8888889,8.31638418 18.0111111,7.88700565 C18.4,7.74011299 18.7333333,7.57062147 19.0111111,7.38983051 L19.0111111,8.93785311 Z M19.0111111,5.87570621 C19.0111111,6.56497175 16.9888889,7.5480226 13.8333333,7.5480226 C10.6777778,7.5480226 8.65555556,6.55367232 8.65555556,5.87570621 L8.65555556,4.16949153 C8.93333333,4.35028249 9.26666667,4.51977401 9.65555556,4.66666667 C10.7777778,5.0960452 12.2666667,5.33333333 13.8333333,5.33333333 C15.4,5.33333333 16.8888889,5.0960452 18.0111111,4.66666667 C18.4,4.51977401 18.7333333,4.35028249 19.0111111,4.16949153 L19.0111111,5.87570621 Z M13.8333333,0.983050847 C16.9888889,0.983050847 19.0111111,1.97740113 19.0111111,2.65536723 C19.0111111,3.33333333 17,4.33898305 13.8333333,4.33898305 C10.6777778,4.33898305 8.65555556,3.34463277 8.65555556,2.66666667 C8.65555556,1.98870056 10.6777778,0.983050847 13.8333333,0.983050847 Z M6.15555556,7.41242938 C6.85555556,7.41242938 7.48888889,7.45762712 8.06666667,7.5480226 C8.08888889,7.5480226 8.1,7.55932203 8.12222222,7.55932203 C10.1222222,7.85310734 11.3333333,8.56497175 11.3333333,9.0960452 C11.3333333,9.78531073 9.31111111,10.7683616 6.15555556,10.7683616 C3,10.7683616 0.977777778,9.7740113 0.977777778,9.0960452 C0.977777778,8.4180791 2.98888889,7.41242938 6.15555556,7.41242938 Z M6.15555556,19.0169492 C3,19.0169492 0.977777778,18.0225989 0.977777778,17.3446328 L0.977777778,17.3107345 L0.977777778,16.1581921 C1.25555556,16.3389831 1.58888889,16.5084746 1.97777778,16.6553672 C3.1,17.0847458 4.58888889,17.3220339 6.15555556,17.3220339 C7.72222222,17.3220339 9.21111111,17.0847458 10.3333333,16.6553672 C10.7222222,16.5084746 11.0555556,16.3389831 11.3333333,16.1581921 L11.3333333,17.3446328 C11.3333333,18.0225989 9.31111111,19.0169492 6.15555556,19.0169492 Z M13.8333333,16.7231638 C13.3111111,16.7231638 12.8,16.700565 12.3111111,16.6440678 L12.3111111,14.5875706 C12.8111111,14.6440678 13.3111111,14.6666667 13.8333333,14.6666667 C15.4,14.6666667 16.8888889,14.4293785 18.0111111,14 C18.4,13.8531073 18.7333333,13.6836158 19.0111111,13.5028249 L19.0111111,15.0621469 C19.0111111,15.7288136 17,16.7231638 13.8333333,16.7231638 Z" id="Shape"></path>
            </g>
        </g>
    </g>
</svg>