
<svg id="Layer_1" data-name="Layer 1" xmlns="http://www.w3.org/2000/svg" viewBox="0 0 402.2 128.67"><defs><style>.cls-1{fill:#fff;}</style></defs><title>logo-white</title><g id="logo主形"><path id="Combined-Shape" class="cls-1" d="M509.15,487.53h0V480H501.4v65.12h26.13q11.46,0,16.71-6.86A16.49,16.49,0,0,0,547.76,528q0-6.75-3.91-10.58a19.69,19.69,0,0,0-6.68-3.87,15.29,15.29,0,0,0,4.66-3.44A13.28,13.28,0,0,0,545,501a14.26,14.26,0,0,0-2.53-8.38q-4.3-6.15-14.49-6.15H515.64v6.63h9.09a20.71,20.71,0,0,1,7.74,1.11q4.62,2,4.62,7.75t-4.34,7.9a17.54,17.54,0,0,1-7.75,1.4h-9.36v6.43h10.67a21.11,21.11,0,0,1,7.94,1.24q5.64,2.31,5.64,8.7a10.7,10.7,0,0,1-1.93,6.46q-3.09,4.25-10.31,4.24H509.1V517.65h0v-6.43h0V493.06h0Zm11.83-40,45.49,18.85,18.85,45.49L566.47,557.4,521,576.24,475.49,557.4l-18.84-45.49,18.84-45.49Zm42.31,22.83L521.38,453,479.47,470.4l-17.36,41.91,17.36,41.91,41.91,17.36,41.91-17.36,17.36-41.91Zm-41.91-13.91,39.47,16.35,16.34,39.47-16.34,39.46-39.47,16.35-39.46-16.35-16.35-39.46,16.35-39.47ZM505.7,470.75,499,480h13.4Z" transform="translate(-456.65 -447.57)"/></g><g id="文字"><path id="Bytex" class="cls-1" d="M706.8,490.57h7.43q-1.41,3.87-6.31,17.65-3.67,10.37-6.13,16.9-5.84,15.39-8.23,18.77t-8.22,3.38a17,17,0,0,1-2.18-.11,18,18,0,0,1-1.89-.41v-6.16a26,26,0,0,0,2.54.6,10.57,10.57,0,0,0,1.38.11,4.86,4.86,0,0,0,2.75-.62,5.63,5.63,0,0,0,1.48-1.52c.12-.2.57-1.23,1.34-3.08s1.33-3.23,1.68-4.13l-14.8-41.38h7.63L696,523.31Zm18.44-11.23H732v11.23h6.39v5.52H732v26.25a2.82,2.82,0,0,0,1.42,2.81,5.88,5.88,0,0,0,2.61.42l1,0c.37,0,.81,0,1.31-.1v5.34a15.58,15.58,0,0,1-2.41.48,20.91,20.91,0,0,1-2.71.16q-4.71,0-6.39-2.43a10.8,10.8,0,0,1-1.68-6.29V496.09h-5.42v-5.52h5.42Zm39.14,10.33a18.2,18.2,0,0,1,8.26,2,15.31,15.31,0,0,1,6.09,5.2,18.09,18.09,0,0,1,2.69,7.1,46.42,46.42,0,0,1,.6,8.86H752.68q.18,6.12,2.88,9.82t8.33,3.7a10.75,10.75,0,0,0,8.41-3.5,11.71,11.71,0,0,0,2.54-4.69h6.62a14.27,14.27,0,0,1-1.74,4.94,17.55,17.55,0,0,1-3.31,4.45,15.63,15.63,0,0,1-7.59,4.05,23,23,0,0,1-5.49.6,16.82,16.82,0,0,1-12.67-5.46q-5.19-5.46-5.19-15.3t5.23-15.74A17.23,17.23,0,0,1,764.38,489.67Zm11.36,17.8a17.7,17.7,0,0,0-1.9-7q-2.77-4.87-9.24-4.88a10.2,10.2,0,0,0-7.77,3.36,12.78,12.78,0,0,0-3.33,8.55Zm11.36-16.9h8.71l9.2,14.16,9.3-14.16,8.19.19L809,510.17l14.09,20.62H814.5l-9.94-15.1-9.65,15.1h-8.52l14.09-20.62Z" transform="translate(-456.65 -447.57)"/><path id="Combined-Shape-2" data-name="Combined-Shape" class="cls-1" d="M633.85,478.54v6.32h-.05v17.33h.05v6.13h-.05V528h17.58q6.86,0,9.78-4A10.29,10.29,0,0,0,663,517.8q0-6.09-5.36-8.3a20.14,20.14,0,0,0-7.53-1.18H640v-6.13h8.87a16.5,16.5,0,0,0,7.35-1.33c2.74-1.4,4.12-3.91,4.12-7.54s-1.46-6.12-4.39-7.39a19.36,19.36,0,0,0-7.34-1.07H640v-6.32h11.65q9.66,0,13.74,5.87a13.68,13.68,0,0,1,2.4,8,12.75,12.75,0,0,1-3,8.69,14.51,14.51,0,0,1-4.42,3.27,18.49,18.49,0,0,1,6.33,3.7q3.71,3.65,3.71,10.09a15.77,15.77,0,0,1-3.33,9.78q-5,6.55-15.85,6.55H626.5V478.54Z" transform="translate(-456.65 -447.57)"/></g><path class="cls-1" d="M799.19,560.35l4.62-21.76h7.85a11.12,11.12,0,0,1,3.19.4,4.48,4.48,0,0,1,2,1.11,3.46,3.46,0,0,1,.89,1.74,5.42,5.42,0,0,1-.07,2.22,6.87,6.87,0,0,1-.73,2,5.8,5.8,0,0,1-1.09,1.39,4.81,4.81,0,0,1-1.3.88,5.67,5.67,0,0,1-1.36.44l0,.06a3.78,3.78,0,0,1,3,1.78,5.19,5.19,0,0,1,.35,3.62,8.21,8.21,0,0,1-1.14,2.87,6.43,6.43,0,0,1-1.87,1.91,7.53,7.53,0,0,1-2.48,1,12.91,12.91,0,0,1-2.91.32Zm2.41-1.75h5.23a23.8,23.8,0,0,0,3-.16,6.81,6.81,0,0,0,2.22-.61,4,4,0,0,0,1.51-1.33,6.68,6.68,0,0,0,.87-2.29,4.45,4.45,0,0,0,0-2.19,2.3,2.3,0,0,0-1-1.28,5,5,0,0,0-1.89-.62,18.29,18.29,0,0,0-2.6-.17h-5.46Zm2.21-10.4H809a12.08,12.08,0,0,0,2.74-.27,5.93,5.93,0,0,0,1.94-.8,4.15,4.15,0,0,0,1.24-1.3,5.81,5.81,0,0,0,.66-1.77,3.91,3.91,0,0,0,0-1.73,1.93,1.93,0,0,0-.81-1.15,4.51,4.51,0,0,0-1.76-.64,16.8,16.8,0,0,0-2.81-.19H805.5Z" transform="translate(-456.65 -447.57)"/><path class="cls-1" d="M821.75,552.94a8.4,8.4,0,0,0-.18,2.41,4.46,4.46,0,0,0,.58,2,3.51,3.51,0,0,0,1.37,1.33,4.49,4.49,0,0,0,2.19.5,5.87,5.87,0,0,0,3.25-.94,6,6,0,0,0,2.25-2.66h2a12.76,12.76,0,0,1-1.31,2.07,8.15,8.15,0,0,1-1.71,1.66,7.42,7.42,0,0,1-2.17,1.11,8.74,8.74,0,0,1-2.69.39,6.76,6.76,0,0,1-3.1-.63,4.63,4.63,0,0,1-1.87-1.74,5.77,5.77,0,0,1-.74-2.6,12.19,12.19,0,0,1,.27-3.22,12,12,0,0,1,1.18-3.23,10.49,10.49,0,0,1,2-2.64,8.89,8.89,0,0,1,2.63-1.79,7.72,7.72,0,0,1,3.15-.64,5,5,0,0,1,4.61,2.22c.92,1.48,1.06,3.63.44,6.44Zm10.55-1.51a7,7,0,0,0,.13-2.16,4.19,4.19,0,0,0-.55-1.75,3.38,3.38,0,0,0-1.3-1.18,4.48,4.48,0,0,0-2.06-.43,5.44,5.44,0,0,0-2.22.45,6.69,6.69,0,0,0-1.83,1.21,8.43,8.43,0,0,0-1.42,1.75,10.29,10.29,0,0,0-1,2.11Z" transform="translate(-456.65 -447.57)"/><path class="cls-1" d="M841.36,560.41c-.22,0-.53.11-.92.21a5,5,0,0,1-1.25.15,2.37,2.37,0,0,1-1.92-.68,2.94,2.94,0,0,1-.2-2.43l2.42-11.45h-2.21l.34-1.51h2.2l.94-4.35h1.81l-.94,4.35h2.93l-.33,1.51H841.3L839,556.93c-.08.39-.15.72-.19,1a1.42,1.42,0,0,0,0,.7.68.68,0,0,0,.39.39,2.35,2.35,0,0,0,.86.12,4.62,4.62,0,0,0,.74-.06c.26,0,.51-.09.77-.15Z" transform="translate(-456.65 -447.57)"/><path class="cls-1" d="M853.39,551.22l1.25-.18a5.77,5.77,0,0,0,1.25-.33,1.21,1.21,0,0,0,.71-.71,6,6,0,0,0,.29-.92,3.47,3.47,0,0,0,.06-1.27,1.94,1.94,0,0,0-.47-1,2.47,2.47,0,0,0-1.06-.66,5.26,5.26,0,0,0-1.73-.24,6.74,6.74,0,0,0-3.26.75,4.57,4.57,0,0,0-2.06,2.78h-1.84a7.05,7.05,0,0,1,1.13-2.37,6.15,6.15,0,0,1,1.74-1.6,7.34,7.34,0,0,1,2.19-.91,10.48,10.48,0,0,1,2.46-.28,8.54,8.54,0,0,1,2.16.25,3.92,3.92,0,0,1,1.63.82,2.85,2.85,0,0,1,.89,1.49,5.26,5.26,0,0,1,0,2.3l-1.81,8.52c-.16.7-.14,1.15.08,1.34s.73.15,1.55-.13l-.3,1.42-.65.18a3.14,3.14,0,0,1-.83.12,3.61,3.61,0,0,1-.79-.09,1,1,0,0,1-1-.83,4.24,4.24,0,0,1,0-1.5,10.72,10.72,0,0,1-3,1.94,8.76,8.76,0,0,1-3.34.66,6.65,6.65,0,0,1-1.92-.27,3.6,3.6,0,0,1-1.49-.85,3.1,3.1,0,0,1-.85-1.4,4.12,4.12,0,0,1,0-2c.55-2.66,2.7-4.23,6.47-4.71Zm2.87.91a10.81,10.81,0,0,1-2.47.63c-.79.11-1.59.18-2.4.25a8,8,0,0,0-3.46.93,3.46,3.46,0,0,0-1.67,2.39,2.18,2.18,0,0,0,0,1.25,1.92,1.92,0,0,0,.58.88,2.66,2.66,0,0,0,1,.51,4.31,4.31,0,0,0,1.21.17,8.88,8.88,0,0,0,2.16-.27,7.29,7.29,0,0,0,2-.83,6.15,6.15,0,0,0,1.59-1.42,5.3,5.3,0,0,0,.93-2Z" transform="translate(-456.65 -447.57)"/></svg>