<?xml version="1.0" encoding="utf-8"?>
<!-- Generator: Adobe Illustrator 22.0.1, SVG Export Plug-In . SVG Version: 6.00 Build 0)  -->
<svg width="20px" height="20px" version="1.1" id="图层_1" xmlns="http://www.w3.org/2000/svg" xmlns:xlink="http://www.w3.org/1999/xlink" x="0px" y="0px"
	 viewBox="0 0 20 20" style="enable-background:new 0 0 20 20;" xml:space="preserve">
<style type="text/css">
	.st0{fill:#FFFFFF;}
</style>
<g>
	<g>
		<path class="st0" d="M10,20C4.5,20,0,15.5,0,10S4.5,0,10,0s10,4.5,10,10S15.5,20,10,20z M10,0.9C5,0.9,0.9,5,0.9,10
			c0,5,4.1,9.1,9.1,9.1c5,0,9.1-4.1,9.1-9.1C19.1,5,15,0.9,10,0.9z"/>
		<path class="st0" d="M10,12.4c-2.5,0-4.4-2-4.4-4.4c0-2.5,2-4.4,4.4-4.4c2.5,0,4.4,2,4.4,4.4C14.4,10.4,12.4,12.4,10,12.4z
			 M10,4.4C8,4.4,6.5,6,6.5,7.9S8,11.4,10,11.4s3.5-1.6,3.5-3.5S11.9,4.4,10,4.4z"/>
		<path class="st0" d="M10,20c-2.6,0-5-1-6.9-2.8L2.9,17L3,16.8c0.9-3.1,3.7-5.3,7-5.3c3.3,0,6.2,2.2,7,5.4l0.1,0.3l-0.2,0.2
			C15,19,12.5,20,10,20z M4,16.7c1.7,1.5,3.8,2.3,6,2.3c2.2,0,4.3-0.8,6-2.3c-0.8-2.6-3.3-4.4-6-4.4C7.2,12.4,4.8,14.1,4,16.7z"/>
	</g>
</g>
</svg>
